<svg xmlns="http://www.w3.org/2000/svg" width="800" height="520" viewBox="0 0 800 520" role="img" aria-label="CRM app preview">
  <defs>
    <linearGradient id="bgd-crm" x1="0" y1="0" x2="1" y2="1">
      <stop offset="0%" stop-color="#e8eef2"/>
      <stop offset="100%" stop-color="#d4efef"/>
    </linearGradient>
  </defs>
  <rect width="800" height="520" fill="url(#bgd-crm)"/>
  <rect x="40" y="40" width="720" height="440" rx="16" fill="#1a2a36" opacity="0.92"/>
  <rect x="48" y="56" width="704" height="408" rx="12" fill="#f4f7f9"/>
  <rect x="48" y="56" width="140" height="408" rx="12" fill="#ffffff"/>
  <rect x="188" y="56" width="1" height="408" fill="#c5d0d8"/>
  <text x="68" y="90" font-family="system-ui,sans-serif" font-size="13" font-weight="700" fill="#1a2a36">CRM</text>
  <rect x="48" y="110" width="90" height="8" rx="4" fill="#0d8a8a"/><rect x="48" y="138" width="70" height="8" rx="4" fill="#d4efef"/><rect x="48" y="166" width="70" height="8" rx="4" fill="#d4efef"/><rect x="48" y="194" width="70" height="8" rx="4" fill="#d4efef"/><rect x="48" y="222" width="70" height="8" rx="4" fill="#d4efef"/>
  <rect x="208" y="76" width="200" height="10" rx="5" fill="#1a2a36"/>
  <rect x="208" y="96" width="140" height="6" rx="3" fill="#5c6b78" opacity="0.45"/>
  <rect x="560" y="72" width="160" height="28" rx="8" fill="#0d8a8a"/>
  <text x="640" y="90" text-anchor="middle" font-family="system-ui,sans-serif" font-size="11" font-weight="600" fill="#ffffff">New action</text>
  
  <rect x="56" y="150" width="168" height="92" rx="10" fill="#ffffff" stroke="#c5d0d8"/>
  <rect x="68" y="164" width="48" height="6" rx="3" fill="#0d8a8a"/>
  <text x="68" y="192" font-family="system-ui,sans-serif" font-size="13" font-weight="600" fill="#1a2a36">Leads</text>
  <rect x="68" y="206" width="120" height="5" rx="2" fill="#e8eef2"/>
  <rect x="68" y="218" width="88" height="5" rx="2" fill="#e8eef2"/>
  <rect x="240" y="150" width="168" height="92" rx="10" fill="#ffffff" stroke="#c5d0d8"/>
  <rect x="252" y="164" width="48" height="6" rx="3" fill="#0d8a8a"/>
  <text x="252" y="192" font-family="system-ui,sans-serif" font-size="13" font-weight="600" fill="#1a2a36">Visits</text>
  <rect x="252" y="206" width="120" height="5" rx="2" fill="#e8eef2"/>
  <rect x="252" y="218" width="88" height="5" rx="2" fill="#e8eef2"/>
  <rect x="56" y="260" width="168" height="92" rx="10" fill="#ffffff" stroke="#c5d0d8"/>
  <rect x="68" y="274" width="48" height="6" rx="3" fill="#0d8a8a"/>
  <text x="68" y="302" font-family="system-ui,sans-serif" font-size="13" font-weight="600" fill="#1a2a36">Pipeline</text>
  <rect x="68" y="316" width="120" height="5" rx="2" fill="#e8eef2"/>
  <rect x="68" y="328" width="88" height="5" rx="2" fill="#e8eef2"/>
  <rect x="240" y="260" width="168" height="92" rx="10" fill="#ffffff" stroke="#c5d0d8"/>
  <rect x="252" y="274" width="48" height="6" rx="3" fill="#0d8a8a"/>
  <text x="252" y="302" font-family="system-ui,sans-serif" font-size="13" font-weight="600" fill="#1a2a36">Notes</text>
  <rect x="252" y="316" width="120" height="5" rx="2" fill="#e8eef2"/>
  <rect x="252" y="328" width="88" height="5" rx="2" fill="#e8eef2"/>
</svg>