<svg xmlns="http://www.w3.org/2000/svg" width="800" height="520" viewBox="0 0 800 520" role="img" aria-label="Space hosting console preview">
  <defs>
    <linearGradient id="bgd-space" x1="0" y1="0" x2="1" y2="1">
      <stop offset="0%" stop-color="#e8eef2"/>
      <stop offset="100%" stop-color="#dde7f5"/>
    </linearGradient>
  </defs>
  <rect width="800" height="520" fill="url(#bgd-space)"/>
  <rect x="40" y="40" width="720" height="440" rx="16" fill="#161b2e" opacity="0.92"/>
  <rect x="48" y="56" width="704" height="408" rx="12" fill="#f4f6fb"/>
  <rect x="48" y="56" width="140" height="408" rx="12" fill="#ffffff"/>
  <rect x="188" y="56" width="1" height="408" fill="#c8ccdb"/>
  <text x="68" y="90" font-family="system-ui,sans-serif" font-size="13" font-weight="700" fill="#161b2e">Space</text>
  <rect x="48" y="110" width="90" height="8" rx="4" fill="#4f46e5"/><rect x="48" y="138" width="70" height="8" rx="4" fill="#e2e4f5"/><rect x="48" y="166" width="70" height="8" rx="4" fill="#e2e4f5"/><rect x="48" y="194" width="70" height="8" rx="4" fill="#e2e4f5"/><rect x="48" y="222" width="70" height="8" rx="4" fill="#e2e4f5"/>
  <rect x="208" y="76" width="220" height="10" rx="5" fill="#161b2e"/>
  <rect x="208" y="96" width="150" height="6" rx="3" fill="#5c6178" opacity="0.45"/>
  <rect x="600" y="72" width="120" height="28" rx="8" fill="#4f46e5"/>
  <text x="660" y="90" text-anchor="middle" font-family="system-ui,sans-serif" font-size="11" font-weight="600" fill="#ffffff">New site</text>

  <rect x="208" y="126" width="150" height="86" rx="10" fill="#ffffff" stroke="#c8ccdb"/>
  <text x="222" y="150" font-family="system-ui,sans-serif" font-size="10" font-weight="600" fill="#5c6178">SITES</text>
  <text x="222" y="180" font-family="system-ui,sans-serif" font-size="22" font-weight="700" fill="#161b2e">12</text>

  <rect x="368" y="126" width="150" height="86" rx="10" fill="#ffffff" stroke="#c8ccdb"/>
  <text x="382" y="150" font-family="system-ui,sans-serif" font-size="10" font-weight="600" fill="#5c6178">SERVERS</text>
  <text x="382" y="180" font-family="system-ui,sans-serif" font-size="22" font-weight="700" fill="#161b2e">3</text>

  <rect x="528" y="126" width="192" height="86" rx="10" fill="#ffffff" stroke="#c8ccdb"/>
  <text x="542" y="150" font-family="system-ui,sans-serif" font-size="10" font-weight="600" fill="#5c6178">UPTIME</text>
  <text x="542" y="180" font-family="system-ui,sans-serif" font-size="22" font-weight="700" fill="#16a34a">99.98%</text>

  <rect x="208" y="228" width="512" height="120" rx="10" fill="#ffffff" stroke="#c8ccdb"/>
  <text x="224" y="252" font-family="system-ui,sans-serif" font-size="12" font-weight="600" fill="#161b2e">Hosting pool</text>
  <rect x="224" y="266" width="480" height="10" rx="5" fill="#e2e4f5"/>
  <rect x="224" y="266" width="300" height="10" rx="5" fill="#4f46e5"/>
  <text x="224" y="296" font-family="system-ui,sans-serif" font-size="10" fill="#5c6178">26 GB allocated of 38 GB capacity</text>
  <rect x="224" y="310" width="230" height="8" rx="4" fill="#e2e4f5"/>
  <rect x="224" y="310" width="120" height="8" rx="4" fill="#0ea5e9"/>
  <rect x="474" y="310" width="230" height="8" rx="4" fill="#e2e4f5"/>
  <rect x="474" y="310" width="80" height="8" rx="4" fill="#16a34a"/>
  <text x="224" y="332" font-family="system-ui,sans-serif" font-size="9" fill="#5c6178">Disk</text>
  <text x="474" y="332" font-family="system-ui,sans-serif" font-size="9" fill="#5c6178">RAM</text>

  <rect x="208" y="360" width="248" height="72" rx="10" fill="#ffffff" stroke="#c8ccdb"/>
  <text x="222" y="382" font-family="system-ui,sans-serif" font-size="11" font-weight="600" fill="#161b2e">acme.zatgo.online</text>
  <rect x="222" y="392" width="52" height="14" rx="7" fill="#dcfce7"/>
  <text x="248" y="402" text-anchor="middle" font-family="system-ui,sans-serif" font-size="8" font-weight="600" fill="#16a34a">Active</text>

  <rect x="472" y="360" width="248" height="72" rx="10" fill="#ffffff" stroke="#c8ccdb"/>
  <text x="486" y="382" font-family="system-ui,sans-serif" font-size="11" font-weight="600" fill="#161b2e">kenz.zatgo.online</text>
  <rect x="486" y="392" width="72" height="14" rx="7" fill="#e0e7ff"/>
  <text x="522" y="402" text-anchor="middle" font-family="system-ui,sans-serif" font-size="8" font-weight="600" fill="#4f46e5">Provisioning</text>
</svg>
